# xmcd
#
# Track frame offsets:
#	150
#	18886
#	40113
#	56940
#	73684
#	96373
#	115915
#	131568
#	144341
#	162062
#	183030
#
# Disc length: 2656 seconds
# Revision: 0
# Processed by: cddbd v1.5.2PL0 Copyright (c) Steve Scherf et al.
# Submitted via: dBpowerAMP V12.0
#
DISCID=900a5e0b
DTITLE=Mike Osborn - In The Dog House
DYEAR=2014
DGENRE=Blues Rock
TTITLE0=Love Vs Ego
TTITLE1=Company Graveyard
TTITLE2=Lovin Time
TTITLE3=Cold Man Cold
TTITLE4=Fire and Gasoline
TTITLE5=Tied Up
TTITLE6=Cheap Women
TTITLE7=Veterans Song
TTITLE8=Satan and Saint Paul
TTITLE9=Jump In Your Fire
TTITLE10=In The Dog House
EXTD=
EXTT0=
EXTT1=
EXTT2=
EXTT3=
EXTT4=
EXTT5=
EXTT6=
EXTT7=
EXTT8=
EXTT9=
EXTT10=
PLAYORDER=
